<svg xmlns="http://www.w3.org/2000/svg" xmlns:xlink="http://www.w3.org/1999/xlink" viewBox="0 0 400 300" width="406" height="306" class="illustration styles_illustrationTablet__1DWOa"><defs><linearGradient id="linear-gradient" x1="49.66" y1="191.05" x2="43.51" y2="197.6" gradientUnits="userSpaceOnUse"><stop offset="0" stop-color="#ffd53f"></stop><stop offset="1" stop-color="#fff"></stop></linearGradient><linearGradient id="linear-gradient-2" x1="355.1" y1="187.19" x2="336.84" y2="200.61" xlink:href="#linear-gradient"></linearGradient><linearGradient id="linear-gradient-3" x1="255.09" y1="184.19" x2="177.13" y2="230.77" xlink:href="#linear-gradient"></linearGradient><linearGradient id="linear-gradient-4" x1="280.09" y1="170.95" x2="307.76" y2="137.87" gradientTransform="matrix(-1, 0, 0, 1, 522.35, 0)" gradientUnits="userSpaceOnUse"><stop offset="0" stop-opacity="0"></stop><stop offset="0.99" stop-color="#1a1a1a"></stop></linearGradient></defs><title>PP</title><g style="isolation: isolate;"><g id="Layer_2" data-name="Layer 2"><path d="M196.24,288.6,23.74,186.65c-5.49-3.08-10.2-8.15-4.85-11.46L192,75.41c2.6-1.61,6.54-2.66,9.18-1.13L382.28,179.37c5.49,3.19,6.48,12.1,1,15.29L219,288.44A22.94,22.94,0,0,1,196.24,288.6Z" fill="#ffe41f"></path><path d="M62.75,165.11c-3.08,1.8-29.93,19-34.68,21.75C31.67,189,50.34,199.73,50.74,200l36-21.19C85.87,178.34,66.59,167,62.75,165.11Z" fill="url(#linear-gradient)" style="mix-blend-mode: multiply;"></path><path d="M353.31,183.58l-2.63,3.86-43.46,22.84,18.67,10.47,33.89-27.62C357.28,188.55,357.17,187.16,353.31,183.58Z" fill="url(#linear-gradient-2)" style="mix-blend-mode: multiply;"></path><path d="M344.56,178.09l2.71,12.63a2.84,2.84,0,0,0,1.52,2c1.57.77,4.82,1.58,11,.46a2.86,2.86,0,0,0,2.29-2.2l2.78-12.84" fill="#68e1fd"></path><ellipse cx="354.7" cy="178.09" rx="10.14" ry="4.15" fill="#124577"></ellipse><path d="M348.81,168.74a3.25,3.25,0,0,1-1.18-1.09l-5.71-8.83c-2.65-4.09-3.61-33.43,3.32-33.81,5.5-.29,11.16,12.57,13.13,16.33a61.1,61.1,0,0,1,5,11.11c1.66,5.79-2.1,10.85-5.67,15.44C356,170.1,351.1,170,348.81,168.74Z" fill="#66c652"></path><path d="M352.21,174.53q1.15.81,2.26,1.68a107.77,107.77,0,0,0-5.36-38.59,1.17,1.17,0,0,0-2.24.7A105.51,105.51,0,0,1,352.21,174.53Z" fill="#124577"></path><path d="M360.27,166.37a2.08,2.08,0,0,1-.14-1l.78-6.67c.36-3.09,11.82-17.91,15.38-15.28,2.83,2.09.38,10.72-.18,13.37a39,39,0,0,1-2.07,7.48c-1.54,3.52-5.45,4.48-9.07,5.29C363.23,169.95,360.88,167.93,360.27,166.37Z" fill="#49b230"></path><path d="M370.81,151.53a128.77,128.77,0,0,0-12.16,27.38,14.92,14.92,0,0,1,1.67,1.07,127,127,0,0,1,12.18-27.54C373.13,151.38,371.44,150.47,370.81,151.53Z" fill="#124577"></path><path d="M157.75,66.81a3.68,3.68,0,0,1,.08,1.86c-.18,1.3-1.39.22-1.39.22" fill="#4f2d12"></path><path d="M98.11,122.36V149a8,8,0,0,1-4,6.92L46.55,184c-1.56.92-3.79.09-3.79-1.72l-.05-27.7c0-3.12.23-4.5,2.92-6.06l48.79-28.31A2.46,2.46,0,0,1,98.11,122.36Z" fill="#4f2d12"></path><polyline points="111.41 129.36 97.26 120.51 48.81 158.09 44.14 184.21 58.42 193.6 58.06 173.35" fill="#4f2d12"></polyline><path d="M112.79,131.56v26.61a8,8,0,0,1-4,6.92L61.23,193.22c-1.56.92-3.79.09-3.79-1.72l-.05-27.7c0-3.12.23-4.5,2.92-6.06l48.79-28.31A2.46,2.46,0,0,1,112.79,131.56Z" fill="#754c24"></path><path d="M111.41,133.08v24.81a7.5,7.5,0,0,1-3.68,6.46l-46,27.19a2.18,2.18,0,0,1-3.28-1.87V164.55a8.16,8.16,0,0,1,4.06-7.06L108,131.1A2.29,2.29,0,0,1,111.41,133.08Z" fill="#68e1fd"></path><ellipse cx="74.74" cy="166.66" rx="17.75" ry="10.29" transform="translate(-107.32 151.94) rotate(-61.22)" fill="#fff"></ellipse><ellipse cx="94.25" cy="163.71" rx="3.46" ry="2.3" transform="translate(-94.65 163.47) rotate(-60)" fill="#2d2f33"></ellipse><path d="M98.17,162.32l-2.47-1.38a.82.82,0,0,0-.54-.09c-.86.15-3.17.9-3,4.74a.81.81,0,0,0,.38.65L95,167.8" fill="#d53446"></path><ellipse cx="96.59" cy="165.06" rx="3.16" ry="2.11" transform="matrix(0.5, -0.87, 0.87, 0.5, -94.65, 166.18)" fill="#ff9494"></ellipse><ellipse cx="103.1" cy="159.8" rx="3.46" ry="2.3" transform="translate(-86.84 169.19) rotate(-60)" fill="#2d2f33"></ellipse><path d="M107,158.41,104.56,157a.82.82,0,0,0-.54-.09c-.86.15-3.17.9-3,4.74a.81.81,0,0,0,.38.65l2.5,1.57" fill="#d53446"></path><ellipse cx="105.45" cy="161.15" rx="3.16" ry="2.11" transform="matrix(0.5, -0.87, 0.87, 0.5, -86.84, 171.9)" fill="#ff9494"></ellipse><path d="M108.53,137v5.29a2.05,2.05,0,0,1-1,1.77L89.32,154.63a1.09,1.09,0,0,1-1.63-.94v-5.4a1.61,1.61,0,0,1,.79-1.39l18.41-10.82A1.09,1.09,0,0,1,108.53,137Z" fill="#fff"></path><path d="M107,141.75v2.46a.31.31,0,0,1-.62,0v-2.46A.31.31,0,0,1,107,141.75Z" fill="#4f2d12"></path><path d="M104.83,140.14v5.35a.31.31,0,0,1-.62,0v-5.35A.31.31,0,0,1,104.83,140.14Z" fill="#4f2d12"></path><path d="M103,143.23v3.27a.31.31,0,0,1-.62,0v-3.27A.31.31,0,0,1,103,143.23Z" fill="#4f2d12"></path><path d="M100.05,145.82v2.46a.31.31,0,0,1-.62,0v-2.46A.31.31,0,0,1,100.05,145.82Z" fill="#4f2d12"></path><path d="M97.85,144.18v5.35a.31.31,0,0,1-.62,0v-5.35A.31.31,0,0,1,97.85,144.18Z" fill="#4f2d12"></path><path d="M96,147.3v3.27a.31.31,0,0,1-.62,0V147.3A.31.31,0,0,1,96,147.3Z" fill="#4f2d12"></path><path d="M101.53,142.09v5.35a.31.31,0,0,1-.62,0v-5.35A.31.31,0,0,1,101.53,142.09Z" fill="#4f2d12"></path><path d="M94.31,146.26v5.35a.31.31,0,0,1-.62,0v-5.35A.31.31,0,0,1,94.31,146.26Z" fill="#4f2d12"></path><path d="M90.78,148.37v5.35a.31.31,0,0,1-.62,0v-5.35A.31.31,0,0,1,90.78,148.37Z" fill="#4f2d12"></path><path d="M92.6,149.41v3.27a.31.31,0,0,1-.62,0v-3.27A.31.31,0,0,1,92.6,149.41Z" fill="#4f2d12"></path><path d="M99,141.15V149a.31.31,0,0,1-.62,0v-7.85A.31.31,0,0,1,99,141.15Z" fill="#d53446"></path><ellipse cx="95.47" cy="126.1" rx="2.64" ry="1.43" fill="#a2abba"></ellipse><path d="M95.35,127.27,47.94,128l48.29-3.12S97.48,127.23,95.35,127.27Z" fill="#c7cedb"></path><circle cx="48.95" cy="128" r="2.11" fill="#4f2d12"></circle><polyline points="193.79 158.8 165.74 173.56 164.91 180.5 194.59 163.74" fill="#e27623"></polyline><path d="M194.94,147.48l11.55,41.68-2.12,1.22a13.17,13.17,0,0,1-1.58-1c-.62-.48-15-43.8-15-43.8" fill="#e27623"></path><polyline points="168.28 139.36 160.39 163.97 161.07 213.2 162.84 214.36 165.28 212.84 167.1 163.94 174.22 139.36" fill="#e27623"></polyline><path d="M199.25,136.41s.87,5.45-1,8.48-6.85-4.51-6.85-4.51" fill="#ffb469"></path><polyline points="173.11 106.66 174.22 126.59 168.99 129.3 168.02 107.93" fill="#ca6b00"></polyline><polyline points="140.28 121.33 136.78 148.28 133.23 187.92 135.51 189.27 137.77 187.85 142.83 148.9 146.22 121.33" fill="#e27623"></polyline><path d="M143.83,124.69c-1.47.45-4.63-1.87-5.58-3.36-5.18-8.14-3.69-19.2,5.64-24.36,4.13-2.28,8.39-4.56,12.5-6.9,3.65-2.09,7.52-3.86,11.05-6.13a8.1,8.1,0,0,1,1.47-.8,5,5,0,0,1,5.31,1.81" fill="#ffb469"></path><path d="M143.45,124.35c-2.49-.09-3.93-3.39-4.66-5.34-2-5.34-2.42-15.51,3.67-18.56a.73.73,0,0,0,.43-.58l11.69-6.75,9-5.22c1.58-.91,3.08-2,4.66-2.87s3.14-2,4.87-.94c1.91,1.15,2.18,3.31,2.47,5.33a32.31,32.31,0,0,1-.72,14c-1,3-3.35,5.1-6,6.65l-8.4,4.86-15.57,9a3.32,3.32,0,0,1-.8.37A2.32,2.32,0,0,1,143.45,124.35Z" fill="#fcbd4c"></path><path d="M141.75,145.93l-.47.27a11.69,11.69,0,0,0-3.48,2.63c-2.36,3-.08,6.35,2.26,8.43,6.33,5.63,15.93,10.24,24.52,8.16,7.47-1.81,14.45-5.31,21-9.25,5.37-3.23,12.09-7.13,13.49-13.8a9.64,9.64,0,0,0-2.55-8.3c-13.48-15.62-32.45-1-45.78,6.69Z" fill="#ffb469"></path><path d="M137.07,146.54c-.11.1-.71,4.42-.28,5.71a16.1,16.1,0,0,0,3.87,5.54c1.57,1.26.63-7.55.63-7.55" fill="#ffb469"></path><path d="M141.75,142.17l-.47.27a11.69,11.69,0,0,0-3.48,2.63c-2.36,3-.08,6.35,2.26,8.43,6.33,5.63,15.93,10.24,24.52,8.16,7.47-1.81,14.45-5.31,21-9.25,5.37-3.23,12.09-7.13,13.49-13.8a9.64,9.64,0,0,0-2.55-8.3c-13.48-15.62-32.45-1-45.78,6.69Z" fill="#fcbd4c"></path><path d="M238.58,153.71c-8.89,5.19-86.33,54.93-100,62.74,10.36,6.29,64.2,37.11,65.37,37.8l103.7-61.1C305.25,191.89,249.66,159.19,238.58,153.71Z" fill="url(#linear-gradient-3)" style="mix-blend-mode: multiply;"></path><path d="M177.2,98.85s2.84,13.67,8,14.27,24.11-19.23,24.11-19.23l1.12-4.44L190,99.63c-1.34-6.55-6.59-16.06-6.59-16.06s-2.74-3-7.85-1.91S172,91.17,172,91.17" fill="#e89574"></path><path d="M182.78,82.87s8.12,14.77,8.72,17-2.25,2-2.25,2l-4.37,1.47" fill="#a0391a"></path><path d="M185.39,109.48s2.7,15.92,3,18.1,22.43,1.06,26.64,10.89,1.25,49.44,1.25,49.44-4.79,2.82-8.71,1.62-3.29-43.66-3.29-43.66L179,132.41l-2.64-18.11Z" fill="#311f1d"></path><path d="M159.87,117.72c-.75,1.92-9.16,26.22,2.36,32.92s31.93,0,31.93,0-3.12,23.68,7,38.47c0,0,4.74,1.39,8.13-.08L209,148.46s-.5-10.18-8.28-12.49-18.85-5.49-18.85-5.49-1.47-17.39-2.55-17.33S159.87,117.72,159.87,117.72Z" fill="#311f1d"></path><path d="M218.73,202.43c4.8,4.68,5.88,10.81,5.09,11.72s-5.87,1.57-10.67-1.07S209.28,203,208,201.59s-.33,7.63-.33,7.63L205.1,208V194.84c0-3.38,2.6-7.69,2.6-7.69l8.13-.08,2.89,15.36" fill="#311f1d"></path><path d="M210.83,190.68l-1.14.09a40,40,0,0,0,2.38,9c1.86,3.87,6.66,2.66,6.66,2.66l-2.42-12.86A17.94,17.94,0,0,1,210.83,190.68Z" fill="#f5a580"></path><path d="M212.2,204.39c4.8,4.68,5.88,10.81,5.09,11.72s-5.87,1.57-10.67-1.07-3.87-10.07-5.13-11.5-.33,7.63-.33,7.63l-2.6-1.24V196.8c0-3.38,2.6-7.69,2.6-7.69l8.13-.08,2.89,15.36" fill="#311f1d"></path><path d="M202.75,190.13c.35,2.48,1.33,8.56,2.79,11.6,1.86,3.87,6.66,2.66,6.66,2.66l-2.57-13.62A16.87,16.87,0,0,1,202.75,190.13Z" fill="#f5a580"></path><path d="M164.72,129.39a83.21,83.21,0,0,0,15.06-2.7c5.67-1.66,4.12-.77,7.71-4.11.66-11-1.89-36.74-4.72-39.72-4.2-4.42-19-2.14-25.67,2.3-9.82,6.5-1.49,43.62-.13,44.23C157,129.41,164.67,129.37,164.72,129.39Z" fill="#e86e43"></path><path d="M201.29,78.83l13.12-7.73a1.25,1.25,0,0,1,1.86,1.32l-4.48,23a1.25,1.25,0,0,1-.62.85l-12.5,6.94a1.25,1.25,0,0,1-1.84-1.31l3.86-22.23A1.25,1.25,0,0,1,201.29,78.83Z" fill="#311f1d"></path><path d="M214.08,83.68s-2.32-2.62-2.88-1.77a2.65,2.65,0,0,0,0,2.15s-1,.18-1.1.9.76.78.76.78-.89.94-.77,1.42,1.84,1.07,1.67,1.19-1.38.18-.9.77,2.15,2.05,2.62,1.62.24-1.56.24-1.56.89-.83,1-1.31a2.26,2.26,0,0,0-.48-1.19s.59-.15.71-.4S215.09,85.44,214.08,83.68Z" fill="#e89574"></path><path d="M181.81,72.48c.06-.27,3-1.55,3.06-5.46s-4.79-11-12.48-11.51-12.55,6.34-11.71,11.09,2.11,10.46,9.51,10.14" fill="#f78f38"></path><path d="M161.41,62s-9.75,15.62-2.55,19.32,14,1.48,15.7-.85S166.78,62.4,161.41,62Z" fill="#f78f38"></path><path d="M182.12,68.51c.39-.17-.13,11.91-7.57,13.19S167,73.89,167,73.89s-2.64-2.21-1.8-4,2.75-.53,2.75-.53,4.61-2.5,4.42-6.58S174.73,71.67,182.12,68.51Z" fill="#fecab5"></path><path d="M160.59,97.28s8.79,9,14.16,8.64,20.09-10.07,20.09-10.07.12-7.31,4.71-9.56v4.53s5.94-3.5,7-1.95-1.67,8-2.81,10.07-5.23,2.13-5.23,2.13S183.23,117,173.64,117.54s-17.43-12.44-17.43-12.44Z" fill="#fecab5"></path><path d="M163.49,93.89l9.24,8s-6,16.69-8.33,16.69-8.19-9.7-8.19-9.7-1.18-4.34,0-7.86S163.49,93.89,163.49,93.89Z" fill="#e86e43"></path><path d="M171.92,104.51c-4-1.43-6.72-6.54-8.75-10a.62.62,0,0,0-1.07.62c2.1,3.61,4.84,8.54,8.89,10.35q-2.24,5.54-4.81,10.93c-3.6-2.36-7.13-4.89-8.9-9-.32-.73-1.38-.1-1.07.62,1.92,4.43,5.87,7.15,9.78,9.7a.56.56,0,0,0,.84-.29.52.52,0,0,0,.35-.3q2.73-5.72,5.1-11.6a.57.57,0,0,0,0-.26A.63.63,0,0,0,171.92,104.51Z" fill="#a0391a"></path><path d="M178.63,60.16a10.79,10.79,0,0,0,2,1.25,1,1,0,0,0,.67-1.39c-1.52-3.85-5.95-4.66-9.57-3.27-3.95,1.52-6.21,5.07-7.48,8.92a6.06,6.06,0,1,0,2.45.42,12.48,12.48,0,0,1,3.12-5.26C171.71,59,176.79,56.92,178.63,60.16Z" fill="#4f2d12"></path><path d="M308.68,147c-.09,24.52-.21,46.59-.21,46.59s-.52,2-4.21.36V145.58C305.72,146.07,307.2,146.55,308.68,147Z" fill="#5b434d"></path><path d="M206.15,206.65c-.09,24.52-.21,46.59-.21,46.59s-.52,2-4.21.36V205.22C203.2,205.71,204.67,206.18,206.15,206.65Z" fill="#5b434d"></path><path d="M143,169.5c-.09,24.52-.21,46.59-.21,46.59s-.52,2-4.21.36V168.06C140,168.56,141.52,169,143,169.5Z" fill="#5b434d"></path><polyline points="309.54 145.58 309.54 149.75 203.74 210.97 138.67 168.24 138.57 163.57" fill="#68e1fd"></polyline><polyline points="309.54 145.58 309.54 149.75 203.74 210.97 138.67 168.24 138.57 163.57" fill="#06489e" opacity="0.36"></polyline><polygon points="309.54 145.58 241.47 106.75 138.57 163.57 204.11 206.78 309.54 145.58" fill="#68e1fd"></polygon><path d="M259.38,146.36l12.05-7.17a1.67,1.67,0,0,1,1.66,0l6.41,3.54a1.67,1.67,0,0,1,0,2.93l-11.75,6.54a2.67,2.67,0,0,1-2.51,0l-5.77-2.93A1.67,1.67,0,0,1,259.38,146.36Z" fill="#311f1d"></path><polyline points="270.51 148.22 288.15 69.59 238.05 44.5 213.86 84.56" fill="none" stroke="#4d4d4d" stroke-miterlimit="10" stroke-width="2"></polyline><polyline points="266.99 147.32 284.08 71.64 239.38 49.26 215.19 89.31" fill="none" stroke="#4d4d4d" stroke-miterlimit="10" stroke-width="2"></polyline><circle cx="285.3" cy="71" r="4.66" fill="#311f1d"></circle><circle cx="238.83" cy="47.43" r="4.55" fill="#311f1d"></circle><path d="M236.13,143.86l36.76,20.48c-6.15,3.88-30.86,17.18-36.8,21.36l-38-24.31,6.26-15.21Z" opacity="0.32" fill="url(#linear-gradient-4)"></path><polyline points="205.77 165.86 179.01 150.26 213.89 130.21 241.24 144.29" fill="#b3b3b3"></polyline><path d="M212.7,135.09s-7,31.15-6.93,30.77,34.67-19,34.9-19.62S249.81,114,249.81,114Z" fill="#fff"></path></g></g></svg>