<svg xmlns="http://www.w3.org/2000/svg" viewBox="0 0 400 300" width="406" height="306" class="illustration styles_illustrationTablet__1DWOa"><g id="_252_money_transfer_outline" data-name="#252_money_transfer_outline"><polygon points="200.01 82.88 128.79 82.88 128.79 65.73 90.9 97.2 128.79 128.67 128.79 111.52 200.01 111.52 200.01 82.88" fill="#fff"></polygon><path d="M128.79,129.67a1,1,0,0,1-.64-.23L90.26,98a1,1,0,0,1,0-1.54L128.15,65a1,1,0,0,1,1.64.77V81.88H200a1,1,0,0,1,1,1v28.64a1,1,0,0,1-1,1H129.79v16.15a1,1,0,0,1-.57.9A.94.94,0,0,1,128.79,129.67ZM92.46,97.2l35.33,29.34v-15a1,1,0,0,1,1-1H199V83.88H128.79a1,1,0,0,1-1-1v-15Z" fill="#093f68"></path><polygon points="200.47 180.3 271.7 180.3 271.7 163.16 309.59 194.63 271.7 226.09 271.7 208.95 200.47 208.95 200.47 180.3" fill="#fff"></polygon><path d="M271.7,227.09a1.07,1.07,0,0,1-.43-.09,1,1,0,0,1-.57-.91V210H200.47a1,1,0,0,1-1-1V180.3a1,1,0,0,1,1-1H270.7V163.16a1,1,0,0,1,1.64-.77l37.89,31.47a1,1,0,0,1,0,1.53l-37.89,31.47A1,1,0,0,1,271.7,227.09ZM201.47,208H271.7a1,1,0,0,1,1,1v15L308,194.62,272.7,165.29v15a1,1,0,0,1-1,1H201.47Z" fill="#093f68"></path><circle cx="200.01" cy="145.19" r="63.48" fill="#68e1fd"></circle><path d="M200,209.67a64.48,64.48,0,1,1,64.49-64.48A64.56,64.56,0,0,1,200,209.67Zm0-127a62.48,62.48,0,1,0,62.49,62.48A62.55,62.55,0,0,0,200,82.71Z" fill="#093f68"></path><circle cx="200.01" cy="145.19" r="52.63" fill="#68e1fd"></circle><path d="M200,198.82a53.63,53.63,0,1,1,53.63-53.63A53.68,53.68,0,0,1,200,198.82Zm0-105.26a51.63,51.63,0,1,0,51.63,51.63A51.68,51.68,0,0,0,200,93.56Z" fill="#093f68"></path><path d="M194.34,184.37v-6.2c-2.26-.61-4.46-1.08-6.56-1.81a19.15,19.15,0,0,1-10.1-7.57,18.8,18.8,0,0,1-2.92-10.51h12.12c.55,4.51,2.75,7.73,7.41,9V150.81c-2.42-.71-4.85-1.37-7.25-2.13a16.93,16.93,0,0,1-7-4,14,14,0,0,1-3.92-7.63,19.63,19.63,0,0,1,.77-10.55A17.53,17.53,0,0,1,187.48,116a52.46,52.46,0,0,1,6.13-1.58c.22-.06.44-.1.73-.15V106h11.33v.8c0,2.35,0,4.7,0,7,0,.58.18.77.73.88A23.75,23.75,0,0,1,217,119.66a17,17,0,0,1,6,10.52c.2,1.12.29,2.26.44,3.46H211.07a8.62,8.62,0,0,0-5.33-7.82v15.35l1.33.31a43.61,43.61,0,0,1,9.65,3.09,14,14,0,0,1,8.37,11.67,18.24,18.24,0,0,1-3.19,13.37,18.53,18.53,0,0,1-9.14,6.77c-2.27.79-4.64,1.31-7.08,2v6Zm11.38-31.2v14.28a10.31,10.31,0,0,0,5-2.21c2.63-2.16,3.56-7.53-.29-9.89A43.75,43.75,0,0,0,205.72,153.17ZM194.3,138.55v-13.8A39.71,39.71,0,0,0,190,127c-3.14,2.1-3.64,7.92.38,10C191.58,137.53,192.91,138,194.3,138.55Z" fill="#fff"></path><path d="M205.68,185.37H194.34a1,1,0,0,1-1-1v-5.43l-1.36-.35c-1.56-.4-3-.77-4.53-1.28a20.24,20.24,0,0,1-10.61-8,19.75,19.75,0,0,1-3.08-11.05,1,1,0,0,1,1-1h12.12a1,1,0,0,1,1,.88c.48,3.92,2.26,6.46,5.42,7.72V151.56l-1.49-.43c-1.66-.47-3.38-1-5.06-1.49a17.85,17.85,0,0,1-7.44-4.26,14.91,14.91,0,0,1-4.2-8.16,20.38,20.38,0,0,1,.82-11.09A18.51,18.51,0,0,1,187.13,115a31.41,31.41,0,0,1,4.34-1.18l1.87-.43V106a1,1,0,0,1,1-1h11.33a1,1,0,0,1,1,1v2.69c0,1.69,0,3.38,0,5.07a24.58,24.58,0,0,1,10.93,5.13A18.09,18.09,0,0,1,224,130c.14.8.23,1.61.31,2.39,0,.37.08.74.13,1.11a1.07,1.07,0,0,1-.24.79,1,1,0,0,1-.75.34H211.07a1,1,0,0,1-1-.95,7.54,7.54,0,0,0-3.34-6.16v12.85c.17,0,.35.09.53.12a44.35,44.35,0,0,1,9.88,3.16,15,15,0,0,1,8.94,12.46,19.37,19.37,0,0,1-13,21.2c-1.6.56-3.2,1-4.89,1.41l-1.52.4v5.24A1,1,0,0,1,205.68,185.37Zm-10.34-2h9.34v-5a1,1,0,0,1,.73-1l2.29-.61c1.65-.42,3.21-.83,4.74-1.36a17.46,17.46,0,0,0,8.65-6.41,17.15,17.15,0,0,0,3-12.66,12.92,12.92,0,0,0-7.8-10.89,42.84,42.84,0,0,0-9.44-3l-1-.23-.38-.09a1,1,0,0,1-.77-1V125.82a1,1,0,0,1,1.42-.9,9.51,9.51,0,0,1,5.82,7.72h10.3v0c-.08-.79-.16-1.53-.29-2.27a15.93,15.93,0,0,0-5.67-9.92,22.61,22.61,0,0,0-10.12-4.73,1.7,1.7,0,0,1-1.53-1.87c0-1.71,0-3.43,0-5.14V107h-9.33v7.22a1,1,0,0,1-.8,1l-.28,0-.41.08c-.65.17-1.3.31-1.95.45a29.56,29.56,0,0,0-4.07,1.1,16.59,16.59,0,0,0-10,10,18.47,18.47,0,0,0-.72,10,13,13,0,0,0,3.64,7.09,15.72,15.72,0,0,0,6.63,3.77c1.66.52,3.36,1,5,1.48l2.22.64a1,1,0,0,1,.72,1v16.45a1,1,0,0,1-1.25,1c-4.49-1.2-7.19-4.2-8-8.94H175.79a17.35,17.35,0,0,0,2.72,9,18.29,18.29,0,0,0,9.59,7.18c1.41.48,2.85.85,4.38,1.23.7.18,1.41.36,2.12.56a1,1,0,0,1,.74,1Zm11.11-69.66Zm-.73,54.75a1,1,0,0,1-.65-.24,1,1,0,0,1-.35-.76V153.17a1,1,0,0,1,.45-.84,1,1,0,0,1,1-.07c.51.24,1,.45,1.54.66A24.18,24.18,0,0,1,211,154.5a6.3,6.3,0,0,1,3,5.08,7.9,7.9,0,0,1-2.64,6.43,11.27,11.27,0,0,1-5.48,2.43Zm1-13.77v11.52a9.1,9.1,0,0,0,3.37-1.74,5.91,5.91,0,0,0,1.91-4.76,4.3,4.3,0,0,0-2.09-3.51,22.69,22.69,0,0,0-3-1.43ZM194.3,139.55a1,1,0,0,1-.38-.08l-1.29-.51a26.63,26.63,0,0,1-2.73-1.16,6.22,6.22,0,0,1-3.41-5.35,7.11,7.11,0,0,1,2.93-6.33,22.49,22.49,0,0,1,3-1.59c.47-.21,1-.43,1.43-.68a1,1,0,0,1,1.45.9v13.8a1,1,0,0,1-.45.83A1,1,0,0,1,194.3,139.55Zm-1-13.22,0,0a20.52,20.52,0,0,0-2.73,1.43,5.2,5.2,0,0,0-2.05,4.55A4.29,4.29,0,0,0,190.8,136c.78.39,1.61.72,2.5,1.06Z" fill="#093f68"></path></g></svg>