<svg xmlns="http://www.w3.org/2000/svg" viewBox="0 0 400 300" width="406" height="306" class="illustration styles_illustrationTablet__1DWOa"><g id="_128_loading_flatline" data-name="#128_loading_flatline"><rect x="47.28" y="104.83" width="305.45" height="89.78" rx="15" fill="#fff"></rect><path d="M337.72,104.83a15,15,0,0,1,15,15v59.78a15,15,0,0,1-15,15H62.28a15,15,0,0,1-15-15V119.83a15,15,0,0,1,15-15H337.72m0-1H62.28a16,16,0,0,0-16,16v59.78a16,16,0,0,0,16,16H337.72a16,16,0,0,0,16-16V119.83a16,16,0,0,0-16-16Z" fill="#231f20"></path><path d="M274.45,104.83v89.78H62.28a15,15,0,0,1-15-15V119.83a15,15,0,0,1,15-15Z" fill="#68e1fd"></path><path d="M229.33,187.26s-2.15,4-1.76,4.83,4.79,2.41,4.64,2.85-9.72.2-10.06-.29-.2-.69-.25-1.87,3.51-6.65,3.51-6.65" fill="#231f20"></path><path d="M228.87,195.65c-2.88,0-6.74-.16-7.13-.72a1.91,1.91,0,0,1-.33-1.34c0-.2,0-.45,0-.79-.05-1.24,2.73-5.63,3.59-6.94a.49.49,0,0,1,.69-.15.5.5,0,0,1,.15.69c-1.67,2.57-3.45,5.73-3.43,6.36,0,.36,0,.63,0,.84,0,.41,0,.52.09.67a51.61,51.61,0,0,0,8.43.37l-.8-.39c-1.7-.82-2.75-1.36-3-2-.44-1,1.1-4,1.78-5.27a.5.5,0,0,1,.88.48c-1.07,2-1.87,4-1.74,4.39a10.91,10.91,0,0,0,2.53,1.46c1.65.8,2.33,1.13,2.12,1.75-.12.36-.53.42-.77.46S230.34,195.65,228.87,195.65Z" fill="#231f20"></path><path d="M224.8,150.07l-17.15-4.89L192.94,167.1s-20.6,13.23-20.6,13.84c0,.85,3.52,6.67,3.52,6.67s13-5.16,23.65-10c8.48-3.83,17.16-16.5,17.16-16.5L233,168.62,223,187.26l7.67.67s11-15,14.65-23.21S224.8,150.07,224.8,150.07Z" fill="#231f20"></path><path d="M230.62,188.43h0l-7.68-.67a.49.49,0,0,1-.39-.26.49.49,0,0,1,0-.47l9.84-18.16-15.51-7.08c-1.49,2.11-9.3,12.8-17.13,16.34-10.49,4.73-23.54,9.9-23.67,9.95a.49.49,0,0,1-.61-.2c-1.08-1.79-3.59-6-3.59-6.93,0-.35,0-.88,20.74-14.2l14.65-21.83a.5.5,0,0,1,.55-.21l17.16,4.88c.77.21,17.56,4.74,20.69,11.28a4.64,4.64,0,0,1,.1,4.06c-3.63,8.22-14.6,23.15-14.71,23.3A.49.49,0,0,1,230.62,188.43Zm-6.87-1.61,6.63.58c1.39-1.9,11.09-15.32,14.44-22.88a3.67,3.67,0,0,0-.09-3.23c-2.94-6.14-19.88-10.7-20-10.74h0l-16.81-4.79-14.51,21.62a.62.62,0,0,1-.14.14c-7.58,4.87-19,12.31-20.34,13.56a50.94,50.94,0,0,0,3.19,5.91c2.26-.9,13.79-5.52,23.24-9.79,8.26-3.72,16.87-16.2,17-16.33a.5.5,0,0,1,.62-.17l16.37,7.47a.51.51,0,0,1,.27.29.5.5,0,0,1,0,.4Z" fill="#231f20"></path><path d="M265.77,132.08s7.14.19,7.27,0,1.58-11,.45-10.56-3.45,6.63-3.45,6.63l-5.12-.48" fill="#fff"></path><path d="M270.89,132.67c-1.12,0-2.75,0-5.14-.09a.49.49,0,0,1-.48-.51.52.52,0,0,1,.51-.49c2.78.08,5.9.12,6.85.06.26-1.48,1-7.62.76-9.37a31.56,31.56,0,0,0-2.89,6.06.5.5,0,0,1-.51.32l-5.11-.48a.51.51,0,0,1-.46-.54.53.53,0,0,1,.55-.46l4.74.45c.69-1.79,2.45-6.08,3.59-6.56a.66.66,0,0,1,.78.21c.9,1.14-.34,10.71-.63,11.11C273.32,132.55,273.23,132.67,270.89,132.67Z" fill="#231f20"></path><path d="M228.39,123c-3.19-1.41-6.22,1.72-8,4-4.69,5.84-8.46,12.57-12.57,18.86,0,0,8.85,15.37,21.11,7.64l13.56-20.55h21.92s.07-1.62,0-5.68C264.41,127.19,229.5,123.48,228.39,123Z" fill="#fff"></path><path d="M222,156.1a11.74,11.74,0,0,1-2.87-.35c-7.1-1.76-11.56-9.38-11.75-9.71a.51.51,0,0,1,0-.52c1.21-1.85,2.41-3.77,3.57-5.63a136.69,136.69,0,0,1,9-13.28c1.16-1.44,4.66-5.82,8.58-4.09.85.29,12.07,1.6,33.34,3.91,3,.32,3,.32,3,.74.06,4,0,5.66,0,5.73a.5.5,0,0,1-.5.48H242.76l-13.42,20.33a.34.34,0,0,1-.15.14A13.36,13.36,0,0,1,222,156.1Zm-13.59-10.3c.84,1.34,5,7.5,11,9a11.62,11.62,0,0,0,9.19-1.72l13.5-20.45a.52.52,0,0,1,.42-.23h21.44c0-.7,0-2.21,0-4.73l-2.11-.23c-22.56-2.45-32.93-3.67-33.62-4h0c-2.17-1-4.59.28-7.41,3.8a137.58,137.58,0,0,0-9,13.18C210.71,142.2,209.56,144,208.41,145.8Z" fill="#231f20"></path><path d="M231.72,122.78c-3.78-.88-2.38-7.45-1.38-10.11a5,5,0,0,1,.9-1.62,4.22,4.22,0,0,1,3.28-1.15,26.74,26.74,0,0,1,3.53.57,15.81,15.81,0,0,0,7.92-.69c.86-.31,1.85-.67,2.62-.19a2,2,0,0,1,.81,1.48,4.07,4.07,0,0,1-1.69,3.57,7.91,7.91,0,0,1-3.86,1.22c.18,1.07.36,1.41-.28,2.29a8.88,8.88,0,0,1-2.27,2,21.88,21.88,0,0,1-2.89,1.38c-2.09.92-4.13,1.73-6.5,1.29Z" fill="#fff"></path><path d="M233.27,123.44a8.14,8.14,0,0,1-1.45-.13l-.21,0a3.23,3.23,0,0,1-2.22-1.71c-1.36-2.52-.28-7,.48-9a5.53,5.53,0,0,1,1-1.79,4.75,4.75,0,0,1,3.66-1.31,14.74,14.74,0,0,1,2.51.37l1.09.21a15.38,15.38,0,0,0,7.67-.67c1-.34,2.09-.74,3-.14a2.43,2.43,0,0,1,1,1.84,4.54,4.54,0,0,1-1.88,4,7.37,7.37,0,0,1-3.58,1.24,2.36,2.36,0,0,1-.45,2.16,9.66,9.66,0,0,1-2.41,2.13,16.59,16.59,0,0,1-2.32,1.14l-.64.28A13.3,13.3,0,0,1,233.27,123.44Zm1-13a3.61,3.61,0,0,0-2.71,1,4.36,4.36,0,0,0-.8,1.46c-.82,2.19-1.64,6.18-.54,8.23a2.27,2.27,0,0,0,1.56,1.21h0l.16,0c2.18.41,4-.29,6.21-1.25l.65-.28a14.12,14.12,0,0,0,2.17-1.07,8.3,8.3,0,0,0,2.14-1.87c.42-.59.39-.77.26-1.52l-.07-.39a.52.52,0,0,1,.09-.38.49.49,0,0,1,.33-.19l.22,0a7,7,0,0,0,3.41-1.09,3.53,3.53,0,0,0,1.49-3.11,1.56,1.56,0,0,0-.58-1.12c-.55-.34-1.39,0-2.14.22A16.21,16.21,0,0,1,238,111c-.38-.06-.75-.14-1.13-.21a12.86,12.86,0,0,0-2.34-.35Z" fill="#231f20"></path><path d="M241.88,120.9s.27,3.15-.31,3.46-1.46-.59-1.46-.59" fill="#fff"></path><path d="M241.3,124.92a2.5,2.5,0,0,1-1.54-.8.5.5,0,0,1,.71-.7c.32.32.76.55.87.5a11.58,11.58,0,0,0,0-3,.51.51,0,0,1,.46-.54.5.5,0,0,1,.54.46c.2,2.31,0,3.63-.58,3.94A1,1,0,0,1,241.3,124.92Z" fill="#231f20"></path><path d="M244.19,115.55c.54,1.32-1.62,5-2.23,6q-1.28,2.31-2.66,4.54c-.58.94-3.12-.41-3.4-1l-1.71,4.07a5.89,5.89,0,0,1-2.91-2.39c-1.52-2.05-1.28-2.54-1.28-2.54l2.59-4.35a3.62,3.62,0,0,0,3.73-.53,15.18,15.18,0,0,0,3.7-4.52S243.66,114.25,244.19,115.55Z" fill="#fff"></path><path d="M234.19,129.76l-.11,0a6.24,6.24,0,0,1-3.2-2.57c-1.13-1.53-1.58-2.56-1.33-3.06l2.62-4.39a.5.5,0,0,1,.67-.18,3.12,3.12,0,0,0,3.2-.5,14.66,14.66,0,0,0,3.54-4.34.49.49,0,0,1,.35-.26c.67-.13,4.07-.67,4.72.92h0c.52,1.27-.7,3.73-2.09,6.2l-.16.29c-.85,1.52-1.75,3.05-2.67,4.55a1.26,1.26,0,0,1-1.22.56,5,5,0,0,1-2.43-.92l-1.43,3.41A.5.5,0,0,1,234.19,129.76Zm-3.7-5.28a5.86,5.86,0,0,0,1.19,2.1,6.65,6.65,0,0,0,2.24,2l1.52-3.61a.49.49,0,0,1,.43-.31.5.5,0,0,1,.47.27,4.07,4.07,0,0,0,2.25,1c.09,0,.24,0,.29-.09.91-1.48,1.81-3,2.64-4.51l.17-.29c1.62-2.88,2.31-4.67,2-5.33s-2-.57-3.39-.36a14.9,14.9,0,0,1-3.73,4.48,4.31,4.31,0,0,1-3.8.74Z" fill="#231f20"></path><path d="M239.89,125a2.07,2.07,0,0,1-1.43-2.27" fill="#fff"></path><path d="M239.89,125.47h-.12a2.57,2.57,0,0,1-1.8-2.8.5.5,0,1,1,1,.08,1.55,1.55,0,0,0,1.06,1.75.5.5,0,0,1-.13,1Z" fill="#231f20"></path><path d="M238.4,120.28a2.45,2.45,0,0,0,.14-1.29,3.45,3.45,0,0,0-.17-1,1.19,1.19,0,0,0-.69-.7,1.08,1.08,0,0,0-.87.15,2,2,0,0,0-.61.66,3.75,3.75,0,0,0-.07,3.75l0-.14" fill="#fff"></path><path d="M236.05,122.29a.39.39,0,0,1-.36-.2,4.24,4.24,0,0,1,.09-4.27,2.76,2.76,0,0,1,.76-.82,1.6,1.6,0,0,1,1.28-.2,1.64,1.64,0,0,1,1,1A4.06,4.06,0,0,1,239,119a2.84,2.84,0,0,1-.2,1.56.51.51,0,0,1-.68.21A.52.52,0,0,1,238,120a1.9,1.9,0,0,0,.09-1,2.8,2.8,0,0,0-.14-.85.64.64,0,0,0-.37-.41.55.55,0,0,0-.45.09,1.4,1.4,0,0,0-.45.5,3.27,3.27,0,0,0-.19,3,.42.42,0,0,1,.14.22.59.59,0,0,1-.28.66A.79.79,0,0,1,236.05,122.29Z" fill="#231f20"></path><path d="M235.9,125.19a4.67,4.67,0,0,1-1.21-2.35s-1.19,2.39.45,4.16Z" fill="#231f20"></path><path d="M235.14,127.5a.52.52,0,0,1-.37-.16c-1.85-2-.58-4.61-.53-4.72a.51.51,0,0,1,.54-.27.5.5,0,0,1,.41.44,4,4,0,0,0,1.07,2,.49.49,0,0,1,.1.54l-.76,1.81a.51.51,0,0,1-.38.3Zm-.36-3A2.9,2.9,0,0,0,235,126l.29-.67A6.12,6.12,0,0,1,234.78,124.52Z" fill="#231f20"></path><ellipse cx="241.59" cy="119.36" rx="0.63" ry="0.25" transform="translate(-1.69 235.24) rotate(-51.76)" fill="#231f20"></ellipse><line x1="242.29" y1="119.18" x2="241.48" y2="118.1" fill="#fff"></line><path d="M242.29,119.68a.46.46,0,0,1-.4-.21l-.81-1.08a.49.49,0,0,1,.11-.69.5.5,0,0,1,.7.1l.8,1.08a.5.5,0,0,1-.11.7A.51.51,0,0,1,242.29,119.68Z" fill="#231f20"></path><path d="M174.78,180.09s-7.95,4.72-7.95,5.47-.88.35,1.85,6.08c1.15,2.43,6.45,4,5.91,2.17-1.54-5.27-1.44-5.83-1.44-5.83l6.32-2.54" fill="#231f20"></path><path d="M173.75,195.11c-1.69,0-4.63-1.36-5.53-3.26-2.3-4.85-2.11-5.48-1.93-6.09a.63.63,0,0,0,0-.2c0-.31,0-1,8.19-5.9a.51.51,0,0,1,.69.18.5.5,0,0,1-.18.68c-3.46,2.06-7.23,4.51-7.7,5.14a1.56,1.56,0,0,1-.08.38c-.1.33-.26.88,1.88,5.38.59,1.25,2.54,2.33,4,2.62a1.75,1.75,0,0,0,1,0s0,0,0-.1a31.31,31.31,0,0,1-1.45-6.06.51.51,0,0,1,.3-.38l6.32-2.53a.5.5,0,0,1,.65.27.51.51,0,0,1-.27.66l-6,2.39a52.42,52.42,0,0,0,1.39,5.37,1,1,0,0,1-.62,1.33A2.06,2.06,0,0,1,173.75,195.11Z" fill="#231f20"></path><path d="M265.77,134.62s7.14.19,7.27,0,2.21-11.64,1.08-11.17-3.47,6.48-3.47,6.48l-5.73.28" fill="#fff"></path><path d="M270.89,135.21c-1.11,0-2.74,0-5.14-.09a.5.5,0,0,1-.48-.51.48.48,0,0,1,.51-.49c2.8.07,5.93.11,6.87.06a70.25,70.25,0,0,0,1.31-9.92,31.54,31.54,0,0,0-2.85,5.85.5.5,0,0,1-.44.32l-5.72.28a.5.5,0,1,1-.05-1l5.4-.27c.68-1.72,2.47-6,3.63-6.45a.63.63,0,0,1,.76.2c1,1.26-1.19,11.65-1.24,11.72S273.24,135.21,270.89,135.21Z" fill="#231f20"></path><polygon points="235.9 133.27 230.38 145.75 233.57 149.41 237.13 145.75 237.13 132.17 235.9 133.27" fill="#231f20"></polygon><path d="M226.88,124.92l40.52,4.29-1.16,7.31s-33,.77-41.11-1.82" fill="#fff"></path><path d="M255.27,137.13c-10.39,0-25.11-.31-30.29-1.95a.5.5,0,1,1,.3-1c7.5,2.38,36.69,1.88,40.53,1.8l1-6.38-40-4.23a.5.5,0,1,1,.1-1l40.53,4.29a.52.52,0,0,1,.34.2.5.5,0,0,1,.1.38l-1.16,7.31a.5.5,0,0,1-.49.42C265.76,137,261.23,137.13,255.27,137.13Z" fill="#231f20"></path><path d="M147.86,68h2.48V84h8.39V86.3H147.86Z" fill="#d1d3d4"></path><path d="M160.07,80.18a6.18,6.18,0,0,1,.51-2.5,6.45,6.45,0,0,1,1.38-2A6.54,6.54,0,0,1,164,74.26a6.51,6.51,0,0,1,8.56,3.42,6.55,6.55,0,0,1,0,5,6,6,0,0,1-1.38,2,6.45,6.45,0,0,1-2.07,1.37,6.78,6.78,0,0,1-5.11,0A6.51,6.51,0,0,1,162,84.74a6,6,0,0,1-1.38-2A6.24,6.24,0,0,1,160.07,80.18Zm2.48,0a5,5,0,0,0,.29,1.72,3.69,3.69,0,0,0,2.06,2.22,4.44,4.44,0,0,0,3.36,0,3.57,3.57,0,0,0,1.26-.88,3.74,3.74,0,0,0,.8-1.34,5.22,5.22,0,0,0,0-3.43,3.74,3.74,0,0,0-.8-1.34,3.57,3.57,0,0,0-1.26-.88,4.44,4.44,0,0,0-3.36,0,3.69,3.69,0,0,0-2.06,2.22A5,5,0,0,0,162.55,80.18Z" fill="#d1d3d4"></path><path d="M176.05,75.56a6.48,6.48,0,0,1,2.28-1.35,7.79,7.79,0,0,1,2.58-.45,7.23,7.23,0,0,1,2.31.33,4.71,4.71,0,0,1,1.59.91,3.53,3.53,0,0,1,.91,1.3,4,4,0,0,1,.3,1.54v6.24c0,.43,0,.83,0,1.19s0,.71.07,1h-2.06c-.05-.62-.08-1.24-.08-1.85h0a4.44,4.44,0,0,1-1.83,1.67,5.78,5.78,0,0,1-2.46.49,5.38,5.38,0,0,1-1.62-.23,3.9,3.9,0,0,1-1.36-.7,3.41,3.41,0,0,1-.92-1.14,3.64,3.64,0,0,1-.33-1.59,3.48,3.48,0,0,1,.53-2,4,4,0,0,1,1.44-1.3,7,7,0,0,1,2.15-.73,15.42,15.42,0,0,1,2.62-.22h1.7V78.2a2.56,2.56,0,0,0-.18-.93,2.52,2.52,0,0,0-.54-.84,2.58,2.58,0,0,0-.91-.6,3.56,3.56,0,0,0-1.29-.21,5.07,5.07,0,0,0-1.17.12,5.5,5.5,0,0,0-.92.33,4.66,4.66,0,0,0-.75.45l-.64.49Zm6.56,4.86a16.38,16.38,0,0,0-1.69.09,6.13,6.13,0,0,0-1.57.35,3,3,0,0,0-1.17.72,1.65,1.65,0,0,0-.45,1.19,1.69,1.69,0,0,0,.71,1.52,3.51,3.51,0,0,0,1.93.46,3.66,3.66,0,0,0,1.62-.32,3,3,0,0,0,1.09-.84,3.22,3.22,0,0,0,.59-1.15,4.55,4.55,0,0,0,.18-1.25v-.77Z" fill="#d1d3d4"></path><path d="M201.67,86.3h-2.33V84.55h-.05a4.42,4.42,0,0,1-1.85,1.52,5.68,5.68,0,0,1-2.41.54,6.44,6.44,0,0,1-2.57-.49,5.46,5.46,0,0,1-2-1.37,6.07,6.07,0,0,1-1.25-2,6.9,6.9,0,0,1-.44-2.53,7,7,0,0,1,.44-2.54,6.07,6.07,0,0,1,1.25-2,5.68,5.68,0,0,1,2-1.35,6.44,6.44,0,0,1,2.57-.49,5.69,5.69,0,0,1,2.48.55,4.29,4.29,0,0,1,1.78,1.51h.05v-9h2.33Zm-6.36-1.85a4.13,4.13,0,0,0,1.68-.33,3.71,3.71,0,0,0,1.27-.88,3.89,3.89,0,0,0,.8-1.34,5.39,5.39,0,0,0,0-3.43,3.89,3.89,0,0,0-.8-1.34,3.71,3.71,0,0,0-1.27-.88,4.13,4.13,0,0,0-1.68-.33,4,4,0,0,0-1.67.33,3.61,3.61,0,0,0-1.27.88,3.89,3.89,0,0,0-.8,1.34,5.39,5.39,0,0,0,0,3.43,3.89,3.89,0,0,0,.8,1.34,3.61,3.61,0,0,0,1.27.88A4,4,0,0,0,195.31,84.45Z" fill="#d1d3d4"></path><path d="M204.81,69.68A1.74,1.74,0,0,1,206.52,68a1.72,1.72,0,0,1,1.7,1.71,1.71,1.71,0,0,1-1.7,1.7,1.72,1.72,0,0,1-1.71-1.7Zm.55,4.39h2.32V86.3h-2.32Z" fill="#d1d3d4"></path><path d="M211.37,74.07h2.33V76h.05a3.47,3.47,0,0,1,1.52-1.59,5.08,5.08,0,0,1,2.5-.6,5.4,5.4,0,0,1,1.7.27,3.85,3.85,0,0,1,1.42.84,4,4,0,0,1,1,1.46,5.55,5.55,0,0,1,.37,2.1V86.3h-2.33V79.08a4.18,4.18,0,0,0-.23-1.46,2.71,2.71,0,0,0-.62-1,2.63,2.63,0,0,0-.89-.54,3.39,3.39,0,0,0-1.05-.17,3.67,3.67,0,0,0-1.34.24,2.8,2.8,0,0,0-1.08.73,3.7,3.7,0,0,0-.73,1.28A5.91,5.91,0,0,0,213.7,80v6.3h-2.33Z" fill="#d1d3d4"></path><path d="M238,86.2a6.5,6.5,0,0,1-.48,2.54,5.85,5.85,0,0,1-1.35,2A6.17,6.17,0,0,1,234,92a8,8,0,0,1-2.74.46,9.92,9.92,0,0,1-3.21-.49,8,8,0,0,1-2.78-1.7l1.58-2a6.34,6.34,0,0,0,2,1.49,5.63,5.63,0,0,0,2.4.5,5.3,5.3,0,0,0,2.14-.37,3.8,3.8,0,0,0,1.36-1,3.62,3.62,0,0,0,.71-1.36,5.76,5.76,0,0,0,.21-1.53V84.29h-.08a4.12,4.12,0,0,1-1.82,1.64,5.77,5.77,0,0,1-2.42.53,6.42,6.42,0,0,1-2.49-.48,5.91,5.91,0,0,1-3.26-3.3,6.62,6.62,0,0,1-.47-2.5,7.16,7.16,0,0,1,.44-2.51,6,6,0,0,1,1.25-2,5.59,5.59,0,0,1,2-1.37,6.39,6.39,0,0,1,2.56-.49,5.72,5.72,0,0,1,2.42.54,4.39,4.39,0,0,1,1.84,1.52h.06V74.07H238Zm-6.35-10.28a4.13,4.13,0,0,0-1.68.33,3.69,3.69,0,0,0-2.06,2.22,5,5,0,0,0-.29,1.71,4.11,4.11,0,0,0,1.09,3,4.42,4.42,0,0,0,5.88,0,4.15,4.15,0,0,0,1.09-3,5,5,0,0,0-.29-1.71,3.74,3.74,0,0,0-.8-1.34,3.57,3.57,0,0,0-1.26-.88A4.13,4.13,0,0,0,231.64,75.92Z" fill="#d1d3d4"></path><path d="M243.33,86.46a1.71,1.71,0,0,1,0-3.41,1.71,1.71,0,0,1,0,3.41Z" fill="#d1d3d4"></path><path d="M250.51,86.46a1.71,1.71,0,0,1,0-3.41,1.71,1.71,0,0,1,0,3.41Z" fill="#d1d3d4"></path><path d="M257.69,86.46a1.71,1.71,0,0,1,0-3.41,1.71,1.71,0,0,1,0,3.41Z" fill="#d1d3d4"></path></g></svg>