<svg xmlns="http://www.w3.org/2000/svg" xmlns:xlink="http://www.w3.org/1999/xlink" viewBox="0 0 400 300" width="406" height="306" class="illustration styles_illustrationTablet__1DWOa"><defs><linearGradient id="linear-gradient" x1="-1054.48" y1="241.37" x2="-1007.75" y2="202.27" gradientTransform="matrix(-1, 0, 0, 1, -740.47, 0)" gradientUnits="userSpaceOnUse"><stop offset="0" stop-color="#fff" stop-opacity="0"></stop><stop offset="0.99" stop-color="gray"></stop></linearGradient><linearGradient id="linear-gradient-2" x1="-937.62" y1="207.63" x2="-890.47" y2="168.19" xlink:href="#linear-gradient"></linearGradient><linearGradient id="linear-gradient-3" x1="84.14" y1="194.6" x2="56.13" y2="173.31" gradientTransform="matrix(1, 0, 0, 1, 0, 0)" xlink:href="#linear-gradient"></linearGradient></defs><title>PP</title><g style="isolation: isolate;"><g id="Layer_2" data-name="Layer 2"><path d="M194.28,288.83,14.56,182.61c-5.72-3.21-10.63-8.49-5.05-11.94l180.37-104c2.71-1.68,6.82-2.78,9.57-1.18L388.11,175c5.72,3.32,6.75,12.6,1,15.93L218,288.66A23.9,23.9,0,0,1,194.28,288.83Z" fill="#dd6f31"></path><polyline points="214.73 224.26 268.26 259.95 355.52 210.15 309.57 181.51" opacity="0.91" fill="url(#linear-gradient)" style="mix-blend-mode: multiply;"></polyline><polyline points="109.93 174.89 187.34 220.28 226.07 191.62 155.86 155.3" opacity="0.33" fill="url(#linear-gradient-2)" style="mix-blend-mode: multiply;"></polyline><polyline points="47.72 186.35 99.82 216.61 120.31 202.66 63.21 179.73" opacity="0.91" fill="url(#linear-gradient-3)" style="mix-blend-mode: multiply;"></polyline><path d="M320.25,123.56c12.45-5.25,13.38-16.6,13.38-16.6v15.88" fill="#68e1fd"></path><path d="M237.07,93.46s7,10.3,7.58,11,9.72,9.93,10.56,10.39,4.65,1.9,4.39,2.71-4.51-1-4,0,4,4.8,2.8,6.23c-.77.94-4.49-.09-5.43-1.24-.71-.86-1.62-4.7-2-4.89s-9.84-7-11.88-8.47-7.54-11.21-7.9-12S237.07,93.46,237.07,93.46Z" fill="#ffc6b2"></path><path d="M236.18,84s4.4,2.72,5.59,15.27c0,0-8.71,2.79-11.41,1.56" fill="#68e1fd"></path><path d="M201.16,179.86c-.43,7.73-.58,15.61-.58,15.61,3,3,7,.66,7,.66s1.1-8.22,2.36-16.44A49.64,49.64,0,0,1,201.16,179.86Z" fill="#ffc6b2"></path><path d="M230,137.57s.43,12.94,0,17.21-2.28,31.29-2.28,31.29a4.8,4.8,0,0,1-6.26,0s-2.07-13.37-1.82-15.93.68-34.85.68-34.85" fill="#ffc6b2"></path><path d="M224.94,73.63c0,.08-18,11-14.31,16.84s11.08.23,11.08.23l4.91-15.39" fill="#f18f22"></path><path d="M212.21,206.69a3.67,3.67,0,0,1-1.08,4c-2,1.74-4.23.56-6.13-.58s-7-6.67-6.13-7.92,1.71-6.7,1.71-6.7" fill="#fff"></path><path d="M207.84,194s.42,5.27,1.54,7.06,3.78,6.2,2.69,7.18-1.52-2.3-3.22-1.54-1.41,3.1-2.54,2.53-6.2-5.45-6.55-8.28,1.49-7.58,1.49-7.58" fill="#68e1fd"></path><path d="M237.4,193.66s.22,3.1-2.59,3.69-6.3-1.12-7.87-1.84-7.31-5.55-7.31-5.55l.68-6.75" fill="#fff"></path><path d="M228,182.74s1.68,4.18,4.72,5.75,5.4,4.61,4.72,5.17-2.14-1.46-2.92-.9-.78,3-1.74,2.41-3,1-5.79-.95-1.91-2.7-4.27-3.6-2.36-7.42-2.36-7.42S226.27,184.53,228,182.74Z" fill="#68e1fd"></path><path d="M230.53,114.06a47.64,47.64,0,0,1,2.41,13c.44,7.84-2.75,53.71-2.75,53.71a24.49,24.49,0,0,1-14.62.77v10.48s-8.07,2.62-16.89-3c0,0,2-67.32,11.54-75.55" fill="#ffd008"></path><path d="M214.89,85.08c2.1-4.17,9.48-4.41,17.48-2.66A10.09,10.09,0,0,1,236.18,84c2,4.59.36,10-.95,14.6-1.47,5.15-3.32,14.47-4.36,17.88-7.93,2.37-18.79-2.24-20.65-3C210.22,113.45,212.8,89.25,214.89,85.08Z" fill="#68e1fd"></path><path d="M227.49,78l-1.19,4.08s2.51,2.3,5.23,1.57l.83-2.54" fill="#ffb39c"></path><path d="M233.86,78c6.35,2,6.83-3.37,6.83-3.37,3.11-10.77-9-10.89-9-10.89s-9.23.4-5.83,12.4" fill="#f18f22"></path><path d="M240.26,70.51s-3,13.44-8.49,11.75S227.51,76,227.51,76s.8-8.59,5.72-9.31S240.26,70.51,240.26,70.51Z" fill="#ffc6b2"></path><path d="M240.26,70.51s-4.14,4.22-8.08,3.1S227.49,78,227.49,78a7.51,7.51,0,0,1-2.46-7.7c.6-3,5.66-7.07,9.48-6.11S241.66,67.93,240.26,70.51Z" fill="#f18f22"></path><path d="M219.14,130.36c.07-.63,1.07-.64,1,0q-2.8,26.36-4.41,52.82c0,.64-1,.64-1,0Q216.34,156.72,219.14,130.36Z" fill="#842e13"></path><path d="M217.65,82.53c-.22.11-3.52,1.68-4.82,6.88S217,102,217,102l9.29-5.84Z" fill="#68e1fd"></path><polygon points="217 102.02 210.38 112.04 212.9 93.41 217 102.02" fill="#4fcce0"></polygon><polyline points="217 102.02 226.3 96.18 214.53 105.76" fill="#4fcce0"></polyline><polygon points="226.3 96.18 222.85 90.74 227.4 96.18 226.3 96.18" fill="#4fcce0"></polygon><path d="M225.12,96.92s7,10.3,7.58,11,9.72,9.93,10.56,10.39,4.65,1.9,4.39,2.71-4.51-1-4,0,4,4.8,2.8,6.23c-.77.94-4.49-.09-5.43-1.24-.71-.86-1.62-4.7-2-4.89s-9.84-7-11.88-8.47-7.54-11.21-7.9-12S225.12,96.92,225.12,96.92Z" fill="#ffc6b2"></path><path d="M296.24,141s26.62-13.88,33.3-23.37,5-18-3.6-22.49c-10.14-5.35-23.88,2.06-23.88,2.06" fill="#68e1fd"></path><path d="M296.24,141s26.62-13.88,33.3-23.37,5-18-3.6-22.49c-10.14-5.35-23.88,2.06-23.88,2.06" opacity="0.36" style="isolation: isolate;"></path><path d="M212.36,153.64v67.08a4.49,4.49,0,0,0,6.7,3.91l83-46.86V97.25L216.3,146.76A7.94,7.94,0,0,0,212.36,153.64Z" fill="#68e1fd"></path><path d="M212.36,153.64v67.08a4.49,4.49,0,0,0,6.7,3.91l83-46.86V97.25L216.3,146.76A7.94,7.94,0,0,0,212.36,153.64Z" opacity="0.36" style="isolation: isolate;"></path><path d="M323.49,118.08c2.65-2.67,5.39-5.51,6.39-9.26,1.14-4.29-1.33-7.61-5-9.55-12.8-6.68-24.13,3-28.6,5.63s-77.94,45.08-78.5,47.5-.93,72.81-.93,72.81-4.45-.19-4.45-4.49V153.64a8.22,8.22,0,0,1,3.94-6.88l10.47-6L248,128.45l24.18-14,19.3-11.14c5.53-3.19,10.79-7.17,17-9a24.55,24.55,0,0,1,19.28,1.94c4.68,2.66,7.32,7.1,5.9,12.48-1.28,4.84-4.54,8.53-7.9,12.06" fill="#2e3192"></path><ellipse cx="280.69" cy="126.53" rx="34.04" ry="31.08" transform="translate(83.24 362.78) rotate(-74.38)" fill="#f2ae16"></ellipse><ellipse cx="284.56" cy="126.53" rx="34.04" ry="31.08" transform="translate(86.07 366.5) rotate(-74.38)" fill="#ffd008"></ellipse><ellipse cx="284.56" cy="126.53" rx="29.83" ry="27.24" transform="translate(86.07 366.5) rotate(-74.38)" fill="none" stroke="#f7931e" stroke-miterlimit="10"></ellipse><path d="M297.55,128.4c-2-3.59-6.06-4.95-10-5.32q-.45-5-1-10a12.65,12.65,0,0,1,2.61.47c2.59.76,3.44-3.35.87-4.1a13.21,13.21,0,0,0-3.94-.47c-.2-1.84-.39-3.68-.61-5.53-.31-2.67-4.5-2.43-4.18.25.23,2,.43,3.91.65,5.86-5.89,1.57-11.16,6.13-9.55,12.65,1.18,4.8,5.88,5,10,5l1.24,0q.4,4.75.73,9.51A35.15,35.15,0,0,1,279,135.5c-2.59-.79-3.43,3.32-.87,4.1a32.77,32.77,0,0,0,6.61,1.3c.07,1.09.15,2.19.22,3.28.16,2.69,4.34,2.45,4.18-.25-.06-1-.14-2-.2-3a13.61,13.61,0,0,0,6.37-2.13A7.64,7.64,0,0,0,297.55,128.4Zm-17.21-5.34c-3.79-1.47-4.39-4.44-1.69-7.16a9.5,9.5,0,0,1,3.81-2.34q.5,4.79.92,9.59A8.48,8.48,0,0,1,280.34,123.07ZM293,135.28a7.64,7.64,0,0,1-4.31,1.53q-.33-4.76-.73-9.5c.37,0,.75.09,1.12.17C292.25,128.2,297.13,131.73,293,135.28Z" fill="#f7931e"></path><path d="M253.07,120.49s.57,8.86-6.32,9.4c0,0,5.83,2.42,6.8,7.06,0,0,.72-6.47,6.64-7.14A9.11,9.11,0,0,1,253.07,120.49Z" fill="#fff"></path><path d="M239.61,171.11v67.08a4.49,4.49,0,0,0,6.7,3.91l83-46.86V114.72l-85.7,49.52A7.94,7.94,0,0,0,239.61,171.11Z" fill="#2e3192"></path><path d="M244,172.79v67.08a4.49,4.49,0,0,0,6.7,3.91l77.79-43.92a10.25,10.25,0,0,0,5.21-8.93V116.4L248,165.92A7.94,7.94,0,0,0,244,172.79Z" fill="#68e1fd"></path><path d="M319,118.17a.5.5,0,0,1-.4-.8q.29-.39.57-.8l0,0a.5.5,0,1,1,.79.61l-.59.83a.5.5,0,0,1-.4.2Z" fill="#2e3192"></path><path d="M253.47,169.54a.5.5,0,0,1-.27-.92l1.65-1.06,0,0a.5.5,0,0,1,.5.87l-1.64,1.08a.5.5,0,0,1-.27.08Zm4.92-3.07a.5.5,0,0,1-.26-.92l1.66-1h0a.5.5,0,1,1,.53.85l-1.66,1a.5.5,0,0,1-.23,0Zm5.05-3.14a.5.5,0,0,1-.26-.93l1.67-1a.5.5,0,0,1,.51.86l-1.67,1a.5.5,0,0,1-.26.07Zm5-3a.5.5,0,0,1-.25-.93l1.68-1a.5.5,0,0,1,.51.86l-1.68,1a.5.5,0,0,1-.25.07Zm5.07-3a.5.5,0,0,1-.25-.93l1.69-1a.5.5,0,0,1,.5.87l-1.69,1a.5.5,0,0,1-.25.07Zm5.09-2.89a.5.5,0,0,1-.25-.94l1.7-1,0,0a.5.5,0,1,1,.44.9l-1.7,1a.5.5,0,0,1-.25.06Zm5.09-2.88a.5.5,0,0,1-.25-.94l1.71-1,0,0a.5.5,0,1,1,.44.9l-1.7,1a.5.5,0,0,1-.25.06Zm5.1-2.86a.5.5,0,0,1-.24-.94l1.71-1a.5.5,0,0,1,.49.87l-1.71,1a.5.5,0,0,1-.24.06Zm5.13-2.86a.5.5,0,0,1-.24-.94l1.7-1a.5.5,0,0,1,.49.87l-1.71,1a.5.5,0,0,1-.24.06ZM299,143a.5.5,0,0,1-.25-.94l1.7-1a.5.5,0,0,1,.49.87l-1.7,1a.5.5,0,0,1-.25.06Zm5.1-2.88a.5.5,0,0,1-.25-.94l1.7-1a.5.5,0,0,1,.5.87l-1.7,1a.5.5,0,0,1-.25.06Zm5.09-2.92a.5.5,0,0,1-.25-.93l1.69-1a.5.5,0,0,1,.5.87l-1.69,1a.5.5,0,0,1-.25.07Zm5.08-2.89a.5.5,0,0,1-.24-.94l1.72-.94a.5.5,0,0,1,.48.88l-1.71.94a.5.5,0,0,1-.24.06Zm5.16-2.8a.5.5,0,0,1-.25-.94l1.69-1a.5.5,0,0,1,.5.86l-1.7,1a.5.5,0,0,1-.25.06Zm5-3a.5.5,0,0,1-.28-.92q.81-.54,1.59-1.1l.07-.05a.5.5,0,0,1,.51.86q-.79.58-1.62,1.12a.5.5,0,0,1-.28.08Zm4.64-3.56a.5.5,0,0,1-.33-.87q.72-.64,1.4-1.32h0a.5.5,0,1,1,.71.71q-.7.7-1.44,1.36a.5.5,0,0,1-.33.13Z" fill="#2e3192"></path><path d="M249.13,173.24h0a.5.5,0,0,1-.41-.58l.21-1.2,1-.67.08-.05a.5.5,0,1,1,.47.88l-.65.43-.14.77a.5.5,0,0,1-.49.42Z" fill="#2e3192"></path><path d="M249.26,239.15c-.88-.34-1.39-.86-1.39-1.43v-.5a.5.5,0,0,1,1,0v.49c0,.08.23.31.75.51a.51.51,0,1,1-.18,1A.5.5,0,0,1,249.26,239.15Zm4.06-.26a.5.5,0,0,1-.3-.9l.25-.17,1.68-.72a.5.5,0,0,1,.4.92l-1.63.7-.1.08a.5.5,0,0,1-.3.1Zm5-2.77a.5.5,0,0,1,.23-.67l1.79-.91h0a.5.5,0,1,1,.46.89l-1.81.92a.5.5,0,0,1-.67-.23Zm-10-2.4a.5.5,0,0,1-.51-.48v-2a.5.5,0,0,1,1,0v2h0a.5.5,0,0,1-.49.51h0Zm15.81-.19a.5.5,0,0,1-.25-.93l1.73-1a.5.5,0,0,1,.52.86l-1.75,1a.49.49,0,0,1-.25.07Zm5.17-3.16a.5.5,0,0,1-.27-.92l1.7-1.08a.5.5,0,0,1,.54.84l-1.7,1.09a.5.5,0,0,1-.27.08Zm-21.13-2.71a.5.5,0,0,1-.53-.45l-.07-2h0a.5.5,0,0,1,.48-.52.52.52,0,0,1,.52.48l.07,2h0a.5.5,0,0,1-.48.52h0Zm26.23-.54a.5.5,0,0,1-.27-.92l1.7-1.09a.5.5,0,0,1,.54.84l-1.7,1.08a.49.49,0,0,1-.27.08Zm5.12-3.27a.5.5,0,0,1-.27-.92l1.71-1.08h0a.5.5,0,1,1,.53.85l-1.71,1.07a.5.5,0,0,1-.27.08ZM248,221.6a.5.5,0,0,1-.53-.45l-.08-2h0a.5.5,0,0,1,.48-.52.51.51,0,0,1,.52.48l.08,2h0a.5.5,0,0,1-.48.52h0Zm36.72-1a.5.5,0,0,1-.26-.93l1.73-1a.5.5,0,0,1,.51.86l-1.73,1a.49.49,0,0,1-.26.07Zm5.22-3.08a.5.5,0,0,1-.25-.93l1.75-1a.5.5,0,0,1,.49.87l-1.75,1a.5.5,0,0,1-.25.07Zm-42.19-2a.5.5,0,0,1-.52-.47l-.08-2h0a.5.5,0,0,1,.48-.52h0a.49.49,0,0,1,.5.48l.08,2h0a.5.5,0,0,1-.48.52h0Zm47.46-1a.5.5,0,0,1-.24-.94l1.77-1a.5.5,0,0,1,.48.88l-1.77,1a.5.5,0,0,1-.24.06Zm5.33-2.9a.5.5,0,0,1-.24-.94l1.78-1,.06,0a.5.5,0,1,1,.41.91l-1.78,1a.5.5,0,0,1-.24.06Zm-53-2.16h-.05A.5.5,0,0,1,247,209l-.06-2h0a.5.5,0,0,1,.49-.51.51.51,0,0,1,.51.49l.06,2h0a.5.5,0,0,1-.48.52h0Zm58.34-.7a.5.5,0,0,1-.23-.94l1.78-.95.06,0a.5.5,0,1,1,.41.91l-1.78.95a.49.49,0,0,1-.23.06ZM311.2,206A.5.5,0,0,1,311,205l1.78-1a.5.5,0,0,1,.47.88l-1.78,1a.5.5,0,0,1-.24.06Zm-63.89-2.56a.5.5,0,0,1-.49-.51v-2a.5.5,0,0,1,.5-.5h0a.49.49,0,0,1,.48.5v2h0a.5.5,0,0,1-.49.51h0Zm69.21-.32a.5.5,0,0,1-.24-.94l1.77-1a.5.5,0,0,1,.48.88l-1.77,1a.5.5,0,0,1-.24.06Zm5.31-2.91a.5.5,0,0,1-.25-.94l1.75-1a.5.5,0,1,1,.5.87l-1.76,1a.5.5,0,0,1-.25.06Zm-74.53-2.79a.5.5,0,0,1-.5-.5v-2a.54.54,0,0,1,.51-.49h0a.5.5,0,0,1,.49.51v2a.5.5,0,0,1-.5.5Zm79.78-.18a.5.5,0,0,1-.25-.93l1.73-1a.5.5,0,0,1,.51.86l-1.74,1a.49.49,0,0,1-.25.07Zm-79.68-5.82h0a.5.5,0,0,1-.48-.52q.08-1,.08-2a.5.5,0,0,1,1,0q-.08,1-.08,2a.5.5,0,0,1-.5.48Zm.32-6.11a.5.5,0,0,1-.46-.53q.07-1,.16-2a.51.51,0,0,1,.54-.45.5.5,0,0,1,.45.54q-.09,1-.16,2a.5.5,0,0,1-.5.46Zm.55-6h0a.5.5,0,0,1-.43-.56q.12-1,.26-2a.51.51,0,0,1,.56-.43.5.5,0,0,1,.43.56q-.13,1-.25,2a.5.5,0,0,1-.5.44Z" fill="#2e3192"></path><ellipse cx="269.75" cy="201.71" rx="8.17" ry="4.71" transform="translate(-21.06 371.66) rotate(-67.09)" fill="#2e3192"></ellipse><ellipse cx="129.84" cy="164.31" rx="27.47" ry="16.09" fill="#ff912e"></ellipse><ellipse cx="130.87" cy="161.98" rx="27.47" ry="16.09" fill="#ffb92c"></ellipse><path d="M144.8,159.83A2.14,2.14,0,0,1,145,161l-.12.43H140a2.27,2.27,0,0,0,.1-.43,1.88,1.88,0,0,0-.4-.91,2.75,2.75,0,0,0-1.22-1.12,5.48,5.48,0,0,0-2.36-.61,5.07,5.07,0,0,0-2.24.35q-1.05.44-.81,1.19a4.35,4.35,0,0,0,1.07,1.65,19.09,19.09,0,0,1,1.52,1.75,1.83,1.83,0,0,1,.28,1.93,4.32,4.32,0,0,1-2.44,1.89,14.43,14.43,0,0,1-5.32,1.1,17,17,0,0,1-5.81-.82l-2.88,1.24L116.08,167l2.8-1.2a6.32,6.32,0,0,1-1.35-1.2,3.57,3.57,0,0,1-.66-1.12,3.67,3.67,0,0,1-.16-.91,2,2,0,0,1,0-.63l.1-.23h4.94a4,4,0,0,0-.12.51,2.14,2.14,0,0,0,.41,1.14,3.76,3.76,0,0,0,1.65,1.42,7.13,7.13,0,0,0,2.92.76,6.06,6.06,0,0,0,2.68-.43q1-.44.79-1.17a4.33,4.33,0,0,0-1.1-1.65,16.06,16.06,0,0,1-1.53-1.75,1.8,1.8,0,0,1-.21-1.94,4.68,4.68,0,0,1,2.55-1.93,13.8,13.8,0,0,1,5.11-1,14.72,14.72,0,0,1,5.44.84l2.88-1.24,3.15,1.65-2.88,1.24A4.1,4.1,0,0,1,144.8,159.83Z" fill="#ea8b24"></path><path d="M130.92,176.4c-13.18,0-23.77-6.37-23.77-14.21S117.81,148,130.92,148s23.77,6.37,23.77,14.21S144,176.4,130.92,176.4Zm0-27c-12.32,0-22.35,5.73-22.35,12.8s10,12.8,22.35,12.8,22.35-5.73,22.35-12.8S143.24,149.39,130.92,149.39Z" fill="#f7931e"></path><path d="M144.13,65a42.48,42.48,0,0,1,15.17-2.85c8.29.06-9.84,14.86-9.84,14.86" fill="#f2ae16"></path><ellipse cx="152.16" cy="89.31" rx="23.45" ry="25.68" transform="translate(-7.04 13.26) rotate(-4.88)" fill="#f2ae16"></ellipse><ellipse cx="159.19" cy="87.86" rx="23.45" ry="25.68" transform="translate(-6.89 13.85) rotate(-4.88)" fill="#ffd008"></ellipse><ellipse cx="159.19" cy="87.86" rx="20.55" ry="22.51" transform="translate(-6.89 13.85) rotate(-4.88)" fill="none" stroke="#f7931e" stroke-miterlimit="10"></ellipse><path d="M168.87,85.75c-2.39-2-5.59-1.9-8.45-1.13q-1.64-3.42-3.32-6.81a9.55,9.55,0,0,1,2-.36c2-.15,1.55-3.28-.47-3.13a10,10,0,0,0-2.91.71c-.63-1.25-1.25-2.5-1.89-3.74-.93-1.8-3.82-.53-2.89,1.28.68,1.32,1.34,2.65,2,4-3.75,2.66-6.27,7.28-3.41,11.46,2.1,3.08,5.48,2,8.39.88l.87-.35q1.54,3.25,3,6.53a26.52,26.52,0,0,1-4.17.6c-2,.13-1.55,3.26.47,3.13a24.73,24.73,0,0,0,5-.83c.34.76.69,1.51,1,2.26A1.58,1.58,0,0,0,167,98.95c-.31-.7-.63-1.4-.95-2.09A10.27,10.27,0,0,0,170,93.67,5.76,5.76,0,0,0,168.87,85.75Zm-13.58.78c-3.07,0-4.28-2-3.09-4.62a7.17,7.17,0,0,1,2.07-2.66q1.62,3.26,3.19,6.53A6.4,6.4,0,0,1,155.29,86.52Zm12.16,5.3A5.77,5.77,0,0,1,164.81,94q-1.49-3.27-3-6.53c.28-.07.55-.14.84-.17C165.07,87,169.45,88.21,167.45,91.82Z" fill="#f7931e"></path><path d="M41,161.37s-3.85,26.33,12.73,26.42c15.93.09,11.82-26.74,11.82-26.74S54,151,41,161.37Z" fill="#68e1fd"></path><path d="M41,161.37s-3.85,26.33,12.73,26.42c15.93.09,11.82-26.74,11.82-26.74S54,151,41,161.37Z" opacity="0.15"></path><ellipse cx="53.27" cy="161.37" rx="12.26" ry="5.06" fill="#68e1fd"></ellipse><ellipse cx="53.27" cy="161.37" rx="12.26" ry="5.06" opacity="0.7"></ellipse><path d="M34,122.92s-8.54-2.05-5.26-9.16C28.72,113.76,34.6,114.93,34,122.92Z" fill="#938f05"></path><path d="M39.18,130.09S38,124,42.74,121.57C42.74,121.57,46.55,127.93,39.18,130.09Z" fill="#938f05"></path><path d="M44.5,139.4s-1.42-7.27,4.26-10.2C48.76,129.2,53.32,136.81,44.5,139.4Z" fill="#938f05"></path><path d="M48.63,149.55s-1.42-7.27,4.26-10.2C52.89,139.35,57.45,147,48.63,149.55Z" fill="#938f05"></path><path d="M38.66,130.25s-3-5.4-8.22-4.22C30.44,126,31.63,133.36,38.66,130.25Z" fill="#938f05"></path><path d="M44.06,139.62S40.2,133.31,34,135C34,135,35.8,143.66,44.06,139.62Z" fill="#938f05"></path><path d="M48.16,149.63s-4.53-5.86-10.48-3.52C37.68,146.11,40.39,154.56,48.16,149.63Z" fill="#938f05"></path><path d="M51.35,166.5h.12a5.91,5.91,0,0,1,1.2.09.59.59,0,0,0,0-.12A87.57,87.57,0,0,0,34.25,122c-.53-.67-1.47.28-.94.94a86,86,0,0,1,18,43.52Z" fill="#42352f"></path><path d="M71.57,134.52s7.33-1.76,4.51-7.86C76.08,126.67,71,127.66,71.57,134.52Z" fill="#938f05"></path><path d="M67.11,140.67s1-5.21-3.05-7.31C64.05,133.36,60.78,138.81,67.11,140.67Z" fill="#938f05"></path><path d="M62.54,148.66s1.21-6.23-3.65-8.75C58.89,139.91,55,146.44,62.54,148.66Z" fill="#938f05"></path><path d="M59,157.36s1.21-6.23-3.65-8.75C55.35,148.61,51.43,155.14,59,157.36Z" fill="#938f05"></path><path d="M67.55,140.81s2.58-4.63,7.05-3.62C74.6,137.19,73.58,143.47,67.55,140.81Z" fill="#938f05"></path><path d="M62.92,148.85s3.31-5.42,8.6-4C71.52,144.86,70,152.32,62.92,148.85Z" fill="#938f05"></path><path d="M59.41,157.44s3.88-5,9-3C68.39,154.41,66.07,161.66,59.41,157.44Z" fill="#938f05"></path><path d="M71.33,133.74a75.09,75.09,0,0,0-15,32.65c.39-.06.79-.12,1.18-.16a73.74,73.74,0,0,1,14.58-31.69C72.59,134,71.79,133.17,71.33,133.74Z" fill="#42352f"></path></g></g></svg>